<svg xmlns="http://www.w3.org/2000/svg" viewBox="0 0 353 89"><defs><style>.a{fill:#4c4948;}.b{fill:#a8bc7a;}.c{fill:#9ecfcb;}.d{fill:#efba18;}</style></defs><title>logo</title><polygon class="a" points="203.817 41.45 187.633 41.45 187.633 11.932 202.306 0.209 205.328 3.992 192.475 14.262 192.475 36.608 203.817 36.608 203.817 41.45"/><polygon class="a" points="336.259 41.486 331.417 41.486 331.417 15.553 345.889 1.08 349.313 4.504 336.259 17.558 336.259 41.486"/><rect class="a" x="190.05399" y="19.25507" width="13.76334" height="4.84223"/><polygon class="a" points="216.193 50.133 211.351 50.133 211.351 1.755 233.386 1.755 233.386 41.45 223.827 41.45 223.827 36.608 228.544 36.608 228.544 6.597 216.193 6.597 216.193 50.133"/><path class="a" d="M248.83326,50.14219l-.14389-37.25032V1.75467h20.24374V15.30353H253.54106l.13443,34.81975ZM253.5316,10.4613h10.55928V6.5969H253.5316Z"/><path class="a" d="M312.5392,50.13274H307.697V13.79067h20.24374V27.33919H312.5392Zm0-27.63578h10.55928V18.6329H312.5392Z"/><rect class="a" x="253.53869" y="19.25507" width="12.78179" height="4.84223"/><polygon class="a" points="270.918 41.486 266.076 41.486 266.076 32.903 253.539 32.903 253.539 28.061 270.918 28.061 270.918 41.486"/><rect class="a" x="257.40782" y="22.76042" width="4.84223" height="27.37232"/><rect class="a" x="277.60664" y="10.9997" width="4.84223" height="17.00151"/><polygon class="a" points="292.882 49.787 282.568 49.787 282.568 44.945 288.04 44.945 288.04 1.409 292.882 1.409 292.882 49.787"/><rect class="a" x="307.85943" y="1.75467" width="20.14613" height="4.84223"/><rect class="a" x="333.83779" y="19.18144" width="19.16221" height="4.84223"/><rect class="a" x="344.43828" y="22.76042" width="4.84223" height="27.37232"/><rect class="a" x="0.30176" y="0.55357" width="24.69822" height="5.53398"/><rect class="a" x="9.88388" y="3.32056" width="5.53398" height="32.579"/><rect class="a" x="69.23195" y="0.55357" width="24.69822" height="5.53398"/><rect class="a" x="78.81406" y="3.32056" width="5.53398" height="32.579"/><polygon class="a" points="57.701 36.802 36.391 36.802 36.391 0.554 57.701 0.554 57.701 6.088 41.925 6.088 41.925 31.268 57.701 31.268 57.701 36.802"/><rect class="a" x="39.15783" y="15.91083" width="18.54342" height="5.53398"/><path class="a" d="M154.69449,36.7048a14.15135,14.15135,0,0,1-14.13556-14.13522V1.35915h5.534V22.56958a8.60141,8.60141,0,0,0,17.20282,0V1.35915h5.534V22.56958A14.15106,14.15106,0,0,1,154.69449,36.7048Z"/><path class="a" d="M130.79712,35.9482h-5.534V13.75689a8.60141,8.60141,0,0,0-17.20282,0V35.9482h-5.534V13.75689a14.13539,14.13539,0,0,1,28.27078,0Z"/><rect class="a" x="105.29333" y="19.91" width="22.7368" height="5.53398"/><rect class="b" x="0.30176" y="48.04365" width="56.17272" height="4.84223"/><rect class="c" x="56.47448" y="48.04365" width="56.17272" height="4.84223"/><rect class="d" x="112.6472" y="48.04365" width="56.17272" height="4.84223"/><path class="a" d="M79.19068,81.88994H77.11139a4.26292,4.26292,0,0,1,0-1.94284h6.36252q.04965.27461.07464.51071a4.31586,4.31586,0,0,1,.025.44855,5.85677,5.85677,0,0,1-.09964.98358h-2.0793v6.97287a6.82333,6.82333,0,0,1-1.09571.11214,6.69291,6.69291,0,0,1-1.10822-.11214Z"/><path class="a" d="M97.61724,84.23067a4.78334,4.78334,0,0,1-.11181.97142H95.10222V86.97h3.12536a4.55839,4.55839,0,0,1,.1118.94642,4.70509,4.70509,0,0,1-.1118.98358H92.89829V79.9471H98.1526q.04965.27461.075.51071a4.3118,4.3118,0,0,1,.02466.44855,5.85677,5.85677,0,0,1-.09964.98358H95.10222v1.36931h2.40321A4.9173,4.9173,0,0,1,97.61724,84.23067Z"/><path class="a" d="M109.482,81.88994h-2.07929a4.26292,4.26292,0,0,1,0-1.94284h6.36252q.04965.27461.07465.51071a4.31574,4.31574,0,0,1,.025.44855,5.85677,5.85677,0,0,1-.09964.98358h-2.07929v6.97287a6.82343,6.82343,0,0,1-1.09572.11214,6.69291,6.69291,0,0,1-1.10822-.11214Z"/><path class="a" d="M124.65888,88.875q-.28677.04965-.52286.075a4.51874,4.51874,0,0,1-.46072.025,5.0808,5.0808,0,0,1-.51678-.03108q-.29284-.03141-.65392-.0939l2.78928-8.89q.32376-.0375.60393-.06215c.18679-.01689.37526-.025.56644-.025q.23659,0,.51678.025.28019.02432.64108.06215l2.75179,8.90287a8.1594,8.1594,0,0,1-1.245.11214c-.16618,0-.332-.00879-.4982-.025q-.24877-.02534-.53537-.075l-.47321-1.73072a5.4582,5.4582,0,0,1-.66607.14929,3.95106,3.95106,0,0,1-1.21394.00608,5.24706,5.24706,0,0,1-.62251-.13038Zm1.74322-6.5743-.83429,3.2q.21128.06283.39857.1a2.00528,2.00528,0,0,0,.38573.03716,2.75405,2.75405,0,0,0,.41714-.03108,3.61009,3.61009,0,0,0,.42964-.0939Z"/><path class="a" d="M142.94864,89.03709a4.43248,4.43248,0,0,1-1.67465-.27426,2.42841,2.42841,0,0,1-1.05215-.79038,3.14876,3.14876,0,0,1-.54177-1.25176,8.02056,8.02056,0,0,1-.15572-1.65574V79.9721q.36124-.04965.62285-.06823.26144-.01926.49787-.01892.21177,0,.46713.01892.25485.01824.61609.06823v4.83142a9.46934,9.46934,0,0,0,.05,1.05856,2.25506,2.25506,0,0,0,.18036.70931.80775.80775,0,0,0,.36749.39249,1.39449,1.39449,0,0,0,.62251.11822,1.43965,1.43965,0,0,0,.62892-.11822.80225.80225,0,0,0,.37357-.39249,2.16835,2.16835,0,0,0,.17429-.70931q.04307-.43572.04357-1.05856V79.9721q.37341-.04965.62859-.06823.25534-.01926.46713-.01892.22393,0,.48537.01892.26144.01824.62284.06823V85.065a8.0206,8.0206,0,0,1-.15571,1.65574,3.15344,3.15344,0,0,1-.54178,1.25176,2.43038,2.43038,0,0,1-1.05214.79038A4.43376,4.43376,0,0,1,142.94864,89.03709Z"/><path class="a" d="M167.33814,79.9721q.28624-.0375.87785-.10539a13.24938,13.24938,0,0,1,1.48787-.0689,7.29772,7.29772,0,0,1,1.33215.125,3.40908,3.40908,0,0,1,1.21427.4668,2.54259,2.54259,0,0,1,.87786.96466,3.4004,3.4004,0,0,1,.33608,1.61858,3.52926,3.52926,0,0,1-.26785,1.46929,2.47093,2.47093,0,0,1-.70965.93426,2.73266,2.73266,0,0,1-1.00857.49787,4.55867,4.55867,0,0,1-1.16428.1493q-.23661,0-.4793-.01824a2.366,2.366,0,0,1-.34249-.04391v2.90142q-.32376.0618-.585.08714c-.17428.01621-.33641.025-.4857.025a6.59269,6.59269,0,0,1-1.08322-.11214Zm2.15394,4.20858a.81928.81928,0,0,0,.21178.03783q.14946.01215.31142.01216a1.12525,1.12525,0,0,0,1.20752-1.25785,1.64358,1.64358,0,0,0-.10572-.62825,1.04855,1.04855,0,0,0-.29251-.4114,1.082,1.082,0,0,0-.43572-.21752,2.13286,2.13286,0,0,0-.5232-.06215h-.17429a1.64491,1.64491,0,0,0-.19928.01216Z"/><path class="a" d="M183.01324,79.9721q.61-.06181,1.12679-.11822a10.16156,10.16156,0,0,1,1.08964-.05607,7.29258,7.29258,0,0,1,1.3693.13105,3.65284,3.65284,0,0,1,1.22.45464,2.53524,2.53524,0,0,1,.87212.8836,2.72833,2.72833,0,0,1,.33574,1.4193,3.00073,3.00073,0,0,1-.10539.8282,2.85334,2.85334,0,0,1-.27426.65392,2.59029,2.59029,0,0,1-.37358.49787,3.49948,3.49948,0,0,1-.40464.36141l1.94284,3.835q-.29894.04965-.65392.07431c-.23644.01688-.45058.025-.64108.025q-.24927,0-.57894-.025a4.80321,4.80321,0,0,1-.5796-.07431l-1.76788-4.07212.11214-.06215a1.38627,1.38627,0,0,0,.32966-.2486,2.3163,2.3163,0,0,0,.33642-.41748,2.58171,2.58171,0,0,0,.26143-.54178,1.858,1.858,0,0,0,.10606-.62217,1.11,1.11,0,0,0-.34858-.90927,1.31133,1.31133,0,0,0-.85928-.28642,1.54114,1.54114,0,0,0-.21144.01283.44221.44221,0,0,0-.11214.025v7.12216a6.78487,6.78487,0,0,1-1.08356.11214,6.68237,6.68237,0,0,1-1.10787-.11214Z"/><path class="a" d="M200.18262,88.975a6.6828,6.6828,0,0,1-1.10855-.11214V79.9721q.3354-.04965.61-.07431.27358-.02533.48571-.025.22394,0,.504.025.28068.02432.60392.07431v8.89071A6.81968,6.81968,0,0,1,200.18262,88.975Z"/><path class="a" d="M211.16276,79.9721q.27358-.04965.49787-.07431a3.874,3.874,0,0,1,.43572-.025,3.64442,3.64442,0,0,1,.46747.03108c.16145.02094.30061.04323.4168.06823l2.88859,4.88141V79.9721c.21617-.0331.41072-.0581.58569-.07431q.26142-.02533.47287-.025a4.20208,4.20208,0,0,1,.44788.025q.23712.02432.49854.07431l-.01283,8.89071a2.95467,2.95467,0,0,1-.36074.07431,3.53144,3.53144,0,0,1-1.07072-.00608q-.24927-.04358-.36141-.06823l-2.90142-4.85642v4.85642a5.03494,5.03494,0,0,1-.99574.11214,5.228,5.228,0,0,1-1.00857-.11214Z"/><path class="a" d="M229.39071,81.88994h-2.08a4.26292,4.26292,0,0,1,0-1.94284h6.36286q.04965.27461.075.51071a4.41172,4.41172,0,0,1,.025.44855,5.89715,5.89715,0,0,1-.1.98358h-2.0793v6.97287a6.81976,6.81976,0,0,1-1.09572.11214,6.68237,6.68237,0,0,1-1.10787-.11214Z"/><path class="a" d="M244.20585,88.975a6.696,6.696,0,0,1-1.10787-.11214V79.9721q.3364-.04965.61-.07431.2736-.02533.48571-.025.22395,0,.504.025.2807.02432.60393.07431v8.89071A6.81976,6.81976,0,0,1,244.20585,88.975Z"/><path class="a" d="M255.18667,79.9721q.27358-.04965.49787-.07431a3.874,3.874,0,0,1,.43572-.025,3.64427,3.64427,0,0,1,.46746.03108c.16146.02094.30062.04323.41681.06823l2.88859,4.88141V79.9721c.21617-.0331.41072-.0581.58568-.07431q.26144-.02533.47288-.025a4.20223,4.20223,0,0,1,.44788.025q.2371.02432.49854.07431l-.01283,8.89071a2.95467,2.95467,0,0,1-.36074.07431,3.53144,3.53144,0,0,1-1.07072-.00608q-.24927-.04358-.36141-.06823L257.191,84.00639v4.85642a5.03494,5.03494,0,0,1-.99574.11214,5.22794,5.22794,0,0,1-1.00857-.11214Z"/><path class="a" d="M276.43966,84.05638q.33641-.04965.59784-.075c.17429-.01621.33642-.025.48571-.025.14119,0,.31143.00878.51071.025.19928.01689.39383.04189.585.075v4.53216a6.32151,6.32151,0,0,1-1.45037.36141,10.3841,10.3841,0,0,1-1.22677.08714,4.95657,4.95657,0,0,1-1.91717-.34249,3.80734,3.80734,0,0,1-1.37606-.9525,3.93254,3.93254,0,0,1-.82821-1.45713,5.959,5.959,0,0,1-.27359-1.84286,5.76812,5.76812,0,0,1,.28643-1.84894,4.314,4.314,0,0,1,.82753-1.47537,3.72951,3.72951,0,0,1,1.33891-.97141,4.46013,4.46013,0,0,1,1.805-.34858,7.17554,7.17554,0,0,1,1.13963.08714,5.22472,5.22472,0,0,1,1.18894.36141,3.73228,3.73228,0,0,1-.18645.99574,5.77285,5.77285,0,0,1-.33641.82213q-.24927-.08715-.45464-.1493c-.13645-.04188-.26751-.075-.39181-.1-.125-.025-.24927-.04324-.37357-.05607-.125-.01216-.25738-.01824-.39856-.01824a1.88733,1.88733,0,0,0-1.55643.67823,3.17026,3.17026,0,0,0-.54786,2.02323,3.08864,3.08864,0,0,0,.5357,1.98607,1.93894,1.93894,0,0,0,1.59358.65392,2.21326,2.21326,0,0,0,.42289-.03716Z"/></svg>