<svg xmlns="http://www.w3.org/2000/svg" viewBox="0 0 353 53"><defs><style>.a{fill:#4c4948;}.b{fill:#a8bc7a;}.c{fill:#9ecfcb;}.d{fill:#efba18;}</style></defs><title>logo_simple</title><polygon class="a" points="203.817 41.45 187.633 41.45 187.633 11.932 202.306 0.209 205.328 3.992 192.475 14.262 192.475 36.608 203.817 36.608 203.817 41.45"/><polygon class="a" points="336.259 41.486 331.417 41.486 331.417 15.553 345.889 1.08 349.313 4.504 336.259 17.558 336.259 41.486"/><rect class="a" x="190.05399" y="19.25507" width="13.76334" height="4.84223"/><polygon class="a" points="216.193 50.133 211.351 50.133 211.351 1.755 233.386 1.755 233.386 41.45 223.827 41.45 223.827 36.608 228.544 36.608 228.544 6.597 216.193 6.597 216.193 50.133"/><path class="a" d="M248.83326,50.14219l-.14389-37.25032V1.75467h20.24374V15.30353H253.54106l.13443,34.81975ZM253.5316,10.4613h10.55928V6.5969H253.5316Z"/><path class="a" d="M312.5392,50.13274H307.697V13.79067h20.24374V27.33919H312.5392Zm0-27.63578h10.55928V18.6329H312.5392Z"/><rect class="a" x="253.53869" y="19.25507" width="12.78179" height="4.84223"/><polygon class="a" points="270.918 41.486 266.076 41.486 266.076 32.903 253.539 32.903 253.539 28.061 270.918 28.061 270.918 41.486"/><rect class="a" x="257.40782" y="22.76042" width="4.84223" height="27.37232"/><rect class="a" x="277.60664" y="10.9997" width="4.84223" height="17.00151"/><polygon class="a" points="292.882 49.787 282.568 49.787 282.568 44.945 288.04 44.945 288.04 1.409 292.882 1.409 292.882 49.787"/><rect class="a" x="307.85943" y="1.75467" width="20.14613" height="4.84223"/><rect class="a" x="333.83779" y="19.18144" width="19.16221" height="4.84223"/><rect class="a" x="344.43828" y="22.76042" width="4.84223" height="27.37232"/><rect class="a" x="0.30176" y="0.55357" width="24.69822" height="5.53398"/><rect class="a" x="9.88388" y="3.32056" width="5.53398" height="32.579"/><rect class="a" x="69.23195" y="0.55357" width="24.69822" height="5.53398"/><rect class="a" x="78.81406" y="3.32056" width="5.53398" height="32.579"/><polygon class="a" points="57.701 36.802 36.391 36.802 36.391 0.554 57.701 0.554 57.701 6.088 41.925 6.088 41.925 31.268 57.701 31.268 57.701 36.802"/><rect class="a" x="39.15783" y="15.91083" width="18.54342" height="5.53398"/><path class="a" d="M154.69449,36.7048a14.15135,14.15135,0,0,1-14.13556-14.13522V1.35915h5.534V22.56958a8.60141,8.60141,0,0,0,17.20282,0V1.35915h5.534V22.56958A14.15106,14.15106,0,0,1,154.69449,36.7048Z"/><path class="a" d="M130.79712,35.9482h-5.534V13.75689a8.60141,8.60141,0,0,0-17.20282,0V35.9482h-5.534V13.75689a14.13539,14.13539,0,0,1,28.27078,0Z"/><rect class="a" x="105.29333" y="19.91" width="22.7368" height="5.53398"/><rect class="b" x="0.30176" y="48.04365" width="56.17272" height="4.84223"/><rect class="c" x="56.47448" y="48.04365" width="56.17272" height="4.84223"/><rect class="d" x="112.6472" y="48.04365" width="56.17272" height="4.84223"/></svg>