<svg xmlns="http://www.w3.org/2000/svg" viewBox="0 0 455.15157 91.12472"><defs><style>.a{fill:#231815;}</style></defs><title>アセット 3</title><rect class="a" y="48.98449" width="31.92968" height="9.07351"/><rect class="a" x="68.91972" y="16.03194" width="9.07423" height="65.07517"/><rect class="a" x="46.06387" y="16.03194" width="9.07422" height="65.07517"/><rect class="a" x="46.06387" y="81.93711" width="31.93007" height="9.07508"/><rect class="a" x="235.96973" y="25.93577" width="9.07429" height="65.07642"/><rect class="a" x="258.82597" y="25.93577" width="9.07351" height="65.07642"/><rect class="a" x="235.96973" y="16.03194" width="31.92975" height="9.07383"/><rect class="a" x="247.39792" y="48.80218" width="9.07423" height="9.45925"/><rect class="a" x="148.09668" y="16.04204" width="9.07423" height="64.68903"/><rect class="a" x="148.09668" y="81.56107" width="9.07423" height="9.46168"/><rect class="a" x="385.5907" y="48.81228" width="9.07423" height="9.45971"/><rect class="a" x="374.16265" y="25.94633" width="9.07423" height="65.07642"/><rect class="a" x="397.01889" y="25.94633" width="9.07338" height="65.07642"/><rect class="a" x="374.16265" y="16.04204" width="31.92962" height="9.07429"/><rect class="a" x="171.30509" y="26.32158" width="9.07423" height="64.69061"/><rect class="a" x="192.03356" y="26.32158" width="9.07397" height="64.69061"/><rect class="a" x="212.76177" y="26.32158" width="9.07423" height="64.69061"/><rect class="a" x="201.93752" y="16.03194" width="19.89848" height="9.45958"/><rect class="a" x="171.30509" y="16.03194" width="19.89848" height="9.45958"/><polygon class="a" points="31.93 16.042 0 16.042 0 48.155 9.074 48.155 9.074 25.116 31.93 25.116 31.93 16.042"/><polygon class="a" points="31.93 58.888 22.856 58.888 22.856 81.948 0 81.948 0 91.023 31.93 91.023 31.93 58.888"/><rect class="a" x="114.01598" y="58.22654" width="9.074" height="34.19282" transform="translate(-18.53751 105.89342) rotate(-45.00093)"/><rect class="a" x="124.88827" y="25.93577" width="9.07383" height="22.02579"/><rect class="a" x="92.12813" y="81.55208" width="9.07423" height="9.46011"/><polygon class="a" points="124.058 16.032 92.128 16.032 92.128 47.962 101.202 47.962 101.202 25.106 124.058 25.106 124.058 16.032"/><polygon class="a" points="124.058 48.792 92.128 48.792 92.128 80.722 101.202 80.722 101.202 57.866 124.058 57.866 124.058 48.792"/><polygon class="a" points="313.965 16.032 282.034 16.032 282.034 47.962 291.108 47.962 291.108 25.106 313.965 25.106 313.965 16.032"/><polygon class="a" points="282.034 59.081 282.034 91.012 313.965 91.012 313.965 81.937 291.108 81.937 291.108 59.081 282.034 59.081"/><polygon class="a" points="360.028 16.032 328.098 16.032 328.098 47.962 337.173 47.962 337.173 25.106 360.028 25.106 360.028 16.032"/><polygon class="a" points="328.098 59.081 328.098 91.012 360.028 91.012 360.028 81.937 337.173 81.937 337.173 59.081 328.098 59.081"/><path class="a" d="M422.46809,83.79747h-2.04492V91.0024H421.501V88.4035h.96707a2.30436,2.30436,0,1,0,0-4.606Zm0,3.53714H421.501V84.86572h.96707a1.23589,1.23589,0,1,1,0,2.46889Z"/><path class="a" d="M431.50723,83.79747H430.43V91.0024H434.192a.48585.48585,0,0,0,.497-.49634v-.5623h-3.1817Z"/><path class="a" d="M444.23658,88.50725a1.44847,1.44847,0,0,1-1.5204,1.55819,1.42952,1.42952,0,0,1-1.51208-1.55819V83.79747h-1.07785v4.53174a2.60135,2.60135,0,1,0,5.18819,0V83.79747h-1.07786Z"/><path class="a" d="M453.2136,86.80753c-.77045-.35929-1.24309-.60457-1.24309-1.106,0-.65068.37146-.96706,1.13614-.96706a3.71719,3.71719,0,0,1,1.2322.26322l.33239.1172.27475-.99908-.27475-.10824c-2.1666-.84794-3.7978.025-3.7978,1.694,0,1.24822,1.03879,1.7215,1.87328,2.10128.8108.36953,1.30778.62571,1.30778,1.21107,0,.70768-.399,1.0516-1.22,1.0516a5.5039,5.5039,0,0,1-1.54089-.29588l-.35032-.10311-.19085,1.0612.28179.08326a6.32792,6.32792,0,0,0,1.80027.31381,2.08087,2.08087,0,0,0,2.31711-2.11088C455.15157,87.70927,454.07691,87.20908,453.2136,86.80753Z"/><rect class="a" x="433.25587" y="16.03194" width="9.07421" height="25.84628"/><rect class="a" x="433.25587" y="50.95247" width="9.07421" height="25.86341"/><rect class="a" x="420.51575" y="41.87823" width="12.74012" height="9.07425"/><rect class="a" x="442.33008" y="41.87823" width="12.74016" height="9.07425"/><path class="a" d="M414.51742,5.76177a1.39634,1.39634,0,0,0,.66509-.5101,1.71537,1.71537,0,0,0,.27976-.98937,1.6034,1.6034,0,0,0-.54989-1.33582,2.5258,2.5258,0,0,0-1.5748-.37739h-1.5253v5.7345h.805v-2.364h.72711c.1022,0,.20088-.00209.296-.00714l1.11952,2.37115h.98255Zm.099-1.541a.88274.88274,0,0,1-.27477.6765,1.90574,1.90574,0,0,1-.99724.19014h-.72711V3.38845h.72421a1.957,1.957,0,0,1,1.00518.188A.82829.82829,0,0,1,414.61642,4.22073Z"/><path class="a" d="M413.54242,10.83262a5.41631,5.41631,0,1,1,5.4159-5.41592A5.42191,5.42191,0,0,1,413.54242,10.83262Zm0-10.098a4.68166,4.68166,0,1,0,4.68124,4.682A4.68716,4.68716,0,0,0,413.54242.73465Z"/></svg>